<svg xmlns="http://www.w3.org/2000/svg" viewBox="0 0 640 270" role="img" aria-labelledby="title desc">
  <title id="title">RE Drošība</title><desc id="desc">RE Drošība logotips ar cilvēka siluetu un zelta drošības līnijām.</desc>
  <rect width="640" height="270" fill="none"/>
  <g transform="translate(18 10)">
    <path fill="#f4f1eb" d="M0 0h210c54 0 91 31 91 76 0 35-20 57-54 69l65 74h-82l-52-68v68H0v-12c25-3 34-14 34-42V42C34 15 25 5 0 3V0Zm126 30v89h46c25 0 42-16 42-44s-17-45-42-45h-46Z"/>
    <path fill="#c88724" d="M244 0h178v48H287c-10-17-24-31-43-39V0Zm39 74h139v48H283c10-13 15-29 15-45 0-1-1-2-1-3h-14Zm-6 77h145v48H242c19-8 28-21 35-48Z"/>
    <circle cx="151" cy="77" r="27" fill="#08090a"/>
    <path fill="#08090a" d="M116 108c8-13 20-20 35-20s27 7 35 20l10 72c-4 22-21 35-45 35s-41-13-45-35l10-72Z"/>
    <path fill="#f4f1eb" d="m137 106 14 17 14-17 7 63-21 25-21-25 7-63Z"/>
    <path fill="#08090a" d="m142 119 9 12 9-12-5 25h-8l-5-25Z"/>
  </g>
  <text x="18" y="263" fill="#f4f1eb" font-family="Arial,sans-serif" font-size="51" font-weight="700" letter-spacing="-2">RE</text>
  <text x="116" y="263" fill="#c88724" font-family="Arial,sans-serif" font-size="51" font-weight="700" letter-spacing="-2">DROŠĪBA</text>
</svg>
